<svg xmlns="http://www.w3.org/2000/svg" viewBox="0 0 2876.53 1000">
                        <g id="Layer_4" data-name="Layer 4">
                            <rect width="2876.53" height="1000" fill="none" />
                            <path
                                d="M866,166.94h182.12c153.5,0,259.56,105.36,259.56,242.81v1.4c0,137.46-106.06,244.21-259.56,244.21H866Zm85.83,78.14V577.22h96.29c102.57,0,169.55-69.08,169.55-164.67v-1.4c0-95.59-67-166.07-169.55-166.07Z" />
                            <path
                                d="M1551.16,163.45h79.54l214.91,491.91H1754.9l-49.54-117.92h-231l-50.24,117.92h-87.91ZM1674,461.39,1589.53,266,1505.8,461.39Z" />
                            <path
                                d="M1929.33,166.94H2147c61.41,0,109.55,18.14,140.95,48.84,25.82,26.51,40.47,62.8,40.47,105.36v1.4c0,80.24-48.14,128.38-115.83,147.92l131.88,184.9H2242.63l-120-170.25H2015.16V655.36h-85.83Zm211.42,242.12c61.41,0,100.48-32.1,100.48-81.64V326c0-52.33-37.68-80.94-101.17-80.94h-124.9v164Z" />
                            <path d="M2553.82,246.48h-154.9V166.94h396.32v79.54h-154.9V655.36h-86.52Z" />
                            <path d="M903.38,739.62H865.85V726h90.53v13.6H918.86v95.86H903.38Z" />
                            <path
                                d="M995.32,755.57q7.65-3.75,18.61-3.75v14.54a30.73,30.73,0,0,0-3.44-.15q-12.21,0-19.16,7.27t-7,20.72v41.28h-15V752.6h14.39v13.92A25.54,25.54,0,0,1,995.32,755.57Z" />
                            <path
                                d="M1110.72,752.6v82.88h-14.23V823a30.33,30.33,0,0,1-12,9.93,37.37,37.37,0,0,1-16.18,3.52q-16.58,0-26.11-9.15t-9.54-27V752.6h15v46q0,12,5.78,18.22t16.58,6.18q11.88,0,18.76-7.2t6.88-20.32V752.6Z" />
                            <path
                                d="M1143.55,833.68q-9.37-2.73-14.7-7l6.26-11.88a44.75,44.75,0,0,0,13.29,6.25,54.77,54.77,0,0,0,15.79,2.35q19.71,0,19.7-11.26a7.29,7.29,0,0,0-2.65-5.94,16.92,16.92,0,0,0-6.65-3.21q-4-1-11.34-2.27a111.54,111.54,0,0,1-16.34-3.59,25.3,25.3,0,0,1-10.87-6.88q-4.53-4.85-4.53-13.61,0-11.25,9.38-18.06t25.18-6.8a69.57,69.57,0,0,1,16.57,2,44.57,44.57,0,0,1,13.61,5.48l-6.41,11.88q-10.17-6.57-23.93-6.57-9.54,0-14.54,3.13t-5,8.29a7.89,7.89,0,0,0,2.81,6.41,17.9,17.9,0,0,0,7,3.44q4.14,1.1,11.65,2.5a127.71,127.71,0,0,1,16.18,3.67,24.23,24.23,0,0,1,10.56,6.65q4.37,4.69,4.37,13.14,0,11.25-9.61,17.9t-26.19,6.65A69.64,69.64,0,0,1,1143.55,833.68Z" />
                            <path
                                d="M1264.27,830.63a22.4,22.4,0,0,1-8.14,4.3,33.92,33.92,0,0,1-10,1.49q-12.51,0-19.39-6.73t-6.88-19.23V765h-14.08V752.6h14.08V734.46h15V752.6h23.77V765h-23.77v44.87q0,6.74,3.36,10.32t9.62,3.6a18.06,18.06,0,0,0,11.72-3.91Z" />
                            <path
                                d="M1354.33,799h-67.24a26,26,0,0,0,9.62,17.59q8.2,6.66,20.41,6.65,14.85,0,23.92-10l8.29,9.7a36.28,36.28,0,0,1-14,10,52.67,52.67,0,0,1-42-2,38.44,38.44,0,0,1-15.72-15.09,43.26,43.26,0,0,1-5.55-21.89,43.93,43.93,0,0,1,5.4-21.74,38.61,38.61,0,0,1,14.85-15.09,42.38,42.38,0,0,1,21.34-5.39,41.5,41.5,0,0,1,21.19,5.39,37.93,37.93,0,0,1,14.54,15.09,45.92,45.92,0,0,1,5.24,22.21A42.26,42.26,0,0,1,1354.33,799Zm-58.72-28a26.56,26.56,0,0,0-8.52,17.2h53.17a26.72,26.72,0,0,0-8.52-17.12q-7.27-6.64-18.07-6.64T1295.61,771.05Z" />
                            <path
                                d="M1453.62,719.45v116h-14.38V822.34a32.53,32.53,0,0,1-12.67,10.48,39.22,39.22,0,0,1-16.88,3.6,43.58,43.58,0,0,1-21.58-5.32,38.1,38.1,0,0,1-14.94-14.93,44.56,44.56,0,0,1-5.39-22.13,44.09,44.09,0,0,1,5.39-22,38.23,38.23,0,0,1,14.94-14.85,43.48,43.48,0,0,1,21.58-5.32,39.68,39.68,0,0,1,16.41,3.36,31.77,31.77,0,0,1,12.51,9.93V719.45Zm-28.45,100.16a25.81,25.81,0,0,0,10-10.32,34.1,34.1,0,0,0,0-30.5,25.29,25.29,0,0,0-10-10.24,30.16,30.16,0,0,0-28.54,0,26,26,0,0,0-10,10.24,33.52,33.52,0,0,0,0,30.5,26.5,26.5,0,0,0,10,10.32,29.58,29.58,0,0,0,28.54,0Z" />
                            <path d="M1526.33,726H1542V835.48h-15.64Z" />
                            <path
                                d="M1642,761q9.3,9.15,9.3,26.81v47.7h-15v-46q0-12-5.79-18.13t-16.57-6.1q-12.2,0-19.23,7.11t-7,20.41v42.69h-15V752.6H1587v12.51a29.24,29.24,0,0,1,12.28-9.85,42.93,42.93,0,0,1,17.59-3.44Q1632.67,751.82,1642,761Z" />
                            <path
                                d="M1748.45,761q9.3,9.15,9.31,26.81v47.7h-15v-46q0-12-5.79-18.13t-16.57-6.1q-12.2,0-19.24,7.11t-7,20.41v42.69h-15V752.6h14.39v12.51a29.18,29.18,0,0,1,12.28-9.85,42.93,42.93,0,0,1,17.59-3.44Q1739.16,751.82,1748.45,761Z" />
                            <path
                                d="M1798.88,830.94a39.68,39.68,0,0,1-15.4-15.09,45.63,45.63,0,0,1,0-43.62,39.1,39.1,0,0,1,15.4-15,45.54,45.54,0,0,1,22.21-5.39,45.06,45.06,0,0,1,22.12,5.39,39.25,39.25,0,0,1,15.33,15,45.63,45.63,0,0,1,0,43.62,39.83,39.83,0,0,1-15.33,15.09,44.47,44.47,0,0,1-22.12,5.48A45,45,0,0,1,1798.88,830.94Zm36.51-11.33a25.9,25.9,0,0,0,9.93-10.32,34.1,34.1,0,0,0,0-30.5,25.38,25.38,0,0,0-9.93-10.24,30.3,30.3,0,0,0-28.61,0,26,26,0,0,0-10,10.24,33.52,33.52,0,0,0,0,30.5,26.5,26.5,0,0,0,10,10.32,29.71,29.71,0,0,0,28.61,0Z" />
                            <path d="M1956,752.6l-36.28,82.88h-15.32l-36.28-82.88h15.64l28.46,66.46,29.08-66.46Z" />
                            <path
                                d="M2024.13,760.26q9.15,8.44,9.15,25.18v50h-14.23v-11a23.82,23.82,0,0,1-10.72,8.84,40.89,40.89,0,0,1-16.49,3q-13.92,0-22.28-6.73a21.56,21.56,0,0,1-8.37-17.67q0-10.93,8-17.59t25.34-6.65h23.76v-3q0-9.69-5.62-14.85t-16.58-5.16a44,44,0,0,0-14.39,2.42,37.12,37.12,0,0,0-11.88,6.49l-6.25-11.26a45.26,45.26,0,0,1,15.32-7.89,63.93,63.93,0,0,1,18.92-2.74Q2015,751.82,2024.13,760.26ZM2009.19,821a21.84,21.84,0,0,0,9.07-10.87V798.57h-23.14q-19.08,0-19.08,12.83a11.61,11.61,0,0,0,4.85,9.85q4.84,3.6,13.45,3.59A27.82,27.82,0,0,0,2009.19,821Z" />
                            <path
                                d="M2107.7,830.63a22.27,22.27,0,0,1-8.13,4.3,33.92,33.92,0,0,1-10,1.49q-12.53,0-19.39-6.73t-6.88-19.23V765h-14.08V752.6h14.08V734.46h15V752.6h23.77V765h-23.77v44.87q0,6.74,3.36,10.32t9.62,3.6a18.06,18.06,0,0,0,11.72-3.91Z" />
                            <path
                                d="M2126.08,733.84a9.24,9.24,0,0,1-2.9-6.88,9.49,9.49,0,0,1,2.9-7,9.83,9.83,0,0,1,7.27-2.89,10.19,10.19,0,0,1,7.27,2.73,9,9,0,0,1,2.89,6.8,9.67,9.67,0,0,1-2.89,7.12,9.87,9.87,0,0,1-7.27,2.89A10,10,0,0,1,2126.08,733.84Zm-.24,18.76h15v82.88h-15Z" />
                            <path d="M2242.8,752.6l-36.27,82.88H2191.2l-36.27-82.88h15.63L2199,819.06l29.08-66.46Z" />
                            <path
                                d="M2329.27,799H2262a26,26,0,0,0,9.61,17.59q8.2,6.66,20.41,6.65,14.85,0,23.92-10l8.29,9.7a36.21,36.21,0,0,1-14,10,52.67,52.67,0,0,1-42-2,38.44,38.44,0,0,1-15.72-15.09A43.26,43.26,0,0,1,2247,794a43.93,43.93,0,0,1,5.4-21.74,38.75,38.75,0,0,1,14.85-15.09,42.39,42.39,0,0,1,21.35-5.39,41.56,41.56,0,0,1,21.19,5.39,38,38,0,0,1,14.54,15.09,46,46,0,0,1,5.24,22.21A42.7,42.7,0,0,1,2329.27,799Zm-58.71-28a26.47,26.47,0,0,0-8.52,17.2h53.16a26.67,26.67,0,0,0-8.52-17.12q-7.28-6.64-18.06-6.64T2270.56,771.05Z" />
                            <path d="M2394.64,726h15.63V835.48h-15.63Z" />
                            <path
                                d="M2519.1,719.45v116h-14.38V822.34a32.53,32.53,0,0,1-12.67,10.48,39.23,39.23,0,0,1-16.89,3.6,43.57,43.57,0,0,1-21.57-5.32,38.1,38.1,0,0,1-14.94-14.93,44.56,44.56,0,0,1-5.39-22.13,44.09,44.09,0,0,1,5.39-22,38.23,38.23,0,0,1,14.94-14.85,43.46,43.46,0,0,1,21.57-5.32,39.69,39.69,0,0,1,16.42,3.36,31.84,31.84,0,0,1,12.51,9.93V719.45Zm-28.46,100.16a25.77,25.77,0,0,0,10-10.32,34.1,34.1,0,0,0,0-30.5,25.25,25.25,0,0,0-10-10.24,30.14,30.14,0,0,0-28.53,0,26,26,0,0,0-10,10.24,33.52,33.52,0,0,0,0,30.5,26.5,26.5,0,0,0,10,10.32,29.56,29.56,0,0,0,28.53,0Z" />
                            <path
                                d="M2622.15,799h-67.24a26,26,0,0,0,9.62,17.59q8.2,6.66,20.4,6.65,14.85,0,23.93-10l8.28,9.7a36.25,36.25,0,0,1-14,10,52.69,52.69,0,0,1-42-2,38.48,38.48,0,0,1-15.71-15.09A43.26,43.26,0,0,1,2539.9,794a44,44,0,0,1,5.39-21.74,38.71,38.71,0,0,1,14.86-15.09,42.35,42.35,0,0,1,21.34-5.39,41.53,41.53,0,0,1,21.19,5.39,37.93,37.93,0,0,1,14.54,15.09,46,46,0,0,1,5.24,22.21A45.06,45.06,0,0,1,2622.15,799Zm-58.72-28a26.47,26.47,0,0,0-8.52,17.2h53.16a26.62,26.62,0,0,0-8.52-17.12q-7.28-6.64-18.06-6.64T2563.43,771.05Z" />
                            <path
                                d="M2697.6,760.26q9.14,8.44,9.14,25.18v50h-14.23v-11a23.74,23.74,0,0,1-10.71,8.84,40.93,40.93,0,0,1-16.49,3q-13.92,0-22.29-6.73a21.55,21.55,0,0,1-8.36-17.67q0-10.93,8-17.59t25.33-6.65h23.77v-3q0-9.69-5.63-14.85t-16.57-5.16a44,44,0,0,0-14.39,2.42,37.12,37.12,0,0,0-11.88,6.49L2637,762.45a45.31,45.31,0,0,1,15.33-7.89,63.88,63.88,0,0,1,18.92-2.74Q2688.44,751.82,2697.6,760.26ZM2682.66,821a21.89,21.89,0,0,0,9.07-10.87V798.57h-23.14q-19.08,0-19.08,12.83a11.61,11.61,0,0,0,4.85,9.85q4.84,3.6,13.45,3.59A27.82,27.82,0,0,0,2682.66,821Z" />
                            <path
                                d="M2738.8,833.68q-9.39-2.73-14.7-7l6.25-11.88a45,45,0,0,0,13.29,6.25,54.84,54.84,0,0,0,15.8,2.35q19.7,0,19.7-11.26a7.3,7.3,0,0,0-2.66-5.94,16.88,16.88,0,0,0-6.64-3.21q-4-1-11.34-2.27a111.54,111.54,0,0,1-16.34-3.59,25.24,25.24,0,0,1-10.87-6.88q-4.53-4.85-4.53-13.61,0-11.25,9.38-18.06t25.17-6.8a69.66,69.66,0,0,1,16.58,2,44.51,44.51,0,0,1,13.6,5.48l-6.41,11.88q-10.17-6.57-23.92-6.57-9.54,0-14.55,3.13t-5,8.29a7.9,7.9,0,0,0,2.82,6.41,17.79,17.79,0,0,0,7,3.44q4.15,1.1,11.65,2.5a127.92,127.92,0,0,1,16.19,3.67,24.25,24.25,0,0,1,10.55,6.65q4.38,4.69,4.38,13.14,0,11.25-9.61,17.9t-26.2,6.65A69.52,69.52,0,0,1,2738.8,833.68Z" />
                            <path
                                d="M422.34,596.09c0,113.53-91.37,158.85-158.85,207.67C264.59,802,380.72,618,227,511.84c-51.06-35.24-86.2-63.82-108.93-90a92.31,92.31,0,0,1-18.27-88.13c10-32,29.58-75.71,66.79-109.46-3.78,30.07.77,77.19,60.05,123.47,67.1,52.39,195.75,134.79,195.75,248.33" />
                            <path
                                d="M85,320.2c7.65-30.5,63.81-149.7,110.54-131.85,68,26,304.21,85.75,349,289.06,68.4,310.48-245.81,235.89-203.63,441.35,0,0,44.56-81.36,144.36-105.34s332-234.47,138.42-527C546.59,170,310.16,86.63,261.27,83.42,194.18,79,88.38,234.67,85,320.2" />
                        </g>
                    </svg>